<?xml version="1.0" encoding="UTF-8" standalone="no"?>
<!-- Created with Inkscape (http://www.inkscape.org/) -->

<svg
   width="3.5in"
   height="1in"
   viewBox="0 0 88.900001 25.4"
   version="1.1"
   id="svg1"
   xmlns="http://www.w3.org/2000/svg"
   xmlns:svg="http://www.w3.org/2000/svg">
  <defs
     id="defs1" />
  <g
     id="layer1"
     style="display:none">
    <rect
       style="fill:#fdb000;stroke-width:0.278175"
       id="rect1"
       width="12.7"
       height="21.59"
       x="46.990002"
       y="1.905" />
    <rect
       style="fill:#fdb000;stroke-width:0.278175"
       id="rect1-5"
       width="12.7"
       height="21.59"
       x="63.245998"
       y="1.905" />
    <rect
       style="fill:#fdb000;stroke-width:0.278175"
       id="rect1-5-2"
       width="12.7"
       height="21.59"
       x="29.209999"
       y="1.905" />
    <rect
       style="fill:#fdb000;stroke-width:0.264583"
       id="rect2"
       height="5.0799999"
       x="2.7939999"
       y="1.905"
       width="5.0799999" />
    <path
       id="path28"
       style="fill:#fdb000;stroke-width:0.278175"
       d="m 15.303975,10.921814 c -0.768387,0.319086 -1.470014,0.637828 -1.478462,0.957047 -0.0084,0.316033 0.662519,0.632115 1.405082,0.948263 h 8.067724 c 0.790629,-0.314817 1.53074,-0.629775 1.536341,-0.946712 0.0056,-0.318123 -0.729324,-0.638335 -1.512053,-0.958598 z" />
    <path
       id="path26"
       style="fill:#fdb000;stroke-width:0.278175"
       d="M 13.547493,2.7683065 C 13.27494,2.7872855 13.208919,3.3836613 13.180591,4.087089 l -0.17415,6.629053 c 0.02207,0.334526 0.09509,0.58704 0.313159,0.607715 0.320131,0.03035 0.952172,-0.439147 1.60042,-0.93431 L 15.0797,4.3165324 C 14.466376,3.51213 13.866014,2.746126 13.547493,2.7683065 Z" />
    <path
       id="path30"
       style="fill:#fdb000;stroke-width:0.278175"
       d="m 13.326835,12.433866 c -0.01125,-1.52e-4 -0.02296,1.53e-4 -0.03359,0.001 -0.230771,0.01985 -0.313419,0.295916 -0.349332,0.65319 l -0.223242,8.49974 c 0.0053,0.578116 0.06204,1.030308 0.296622,1.044897 0.318392,0.0198 0.964604,-0.765413 1.622124,-1.579232 l 0.202054,-7.686869 c -0.601067,-0.477305 -1.186633,-0.928319 -1.514636,-0.93276 z" />
    <path
       id="path29"
       style="display:inline;fill:#fdb000;stroke-width:0.278175"
       d="m 25.298714,12.432316 c -0.327028,0.0054 -0.941904,0.475929 -1.567863,0.963766 l -0.198954,7.557161 h 0.07131 l -0.07131,0.0031 -0.0031,0.114205 c 0.615525,0.806064 1.219058,1.578301 1.538408,1.564762 0.237474,-0.01007 0.317733,-0.454927 0.35295,-1.024744 l 0.219625,-8.367448 c -0.0034,-0.430805 -0.0523,-0.787792 -0.309025,-0.809769 -0.01031,-8.83e-4 -0.02107,-0.0012 -0.03204,-10e-4 z" />
    <path
       id="path27"
       style="display:inline;fill:#fdb000;stroke-width:0.278175"
       d="m 25.553479,2.7900106 c -0.327158,0.013529 -0.949097,0.7614798 -1.584399,1.5430582 l -0.15813,6.0068682 c 0.621659,0.514721 1.233362,1.011597 1.55236,0.993221 0.251819,-0.0145 0.320478,-0.351323 0.346749,-0.763261 l 0.171565,-6.5158809 c 0.0038,-0.6762667 -0.04085,-1.2317399 -0.296106,-1.2624552 -0.01039,-0.00125 -0.02097,-0.00201 -0.03204,-0.00155 z" />
    <path
       id="path25"
       style="fill:#fdb000;stroke-width:0.278175"
       d="M 15.365987 1.9047933 C 14.69117 1.9181803 14.131523 1.9755995 14.103015 2.2355225 C 14.068095 2.5538385 14.829279 3.175315 15.623853 3.8101034 L 23.474536 3.8101034 C 24.292722 3.1746664 25.070326 2.5547189 25.043949 2.2360392 C 25.023311 1.9870439 24.512108 1.9221849 23.873995 1.9047933 L 15.365987 1.9047933 z " />
  </g>
  <g
     id="layer4">
    <path
       id="rect1-5-2-7"
       style="display:inline;fill:#fdb000;stroke-width:0.278175"
       d="m 15.177885,21.589897 c -0.834098,0.635148 -1.64208,1.259954 -1.636593,1.578715 0.0044,0.249233 0.507278,0.310364 1.129647,0.326595 h 8.650118 c 0.640351,-0.01656 1.161382,-0.0788 1.188041,-0.330213 0.03379,-0.318666 -0.723436,-0.940136 -1.516186,-1.575097 h -0.122473 l -0.001,0.0067 5.17e-4,-0.0067 z" />
  </g>
</svg>
