<?xml version="1.0" encoding="UTF-8" standalone="no"?>
<!-- Created with Inkscape (http://www.inkscape.org/) -->

<svg
   width="3.5in"
   height="1in"
   viewBox="0 0 88.900001 25.4"
   version="1.1"
   id="svg1"
   xmlns="http://www.w3.org/2000/svg"
   xmlns:svg="http://www.w3.org/2000/svg">
  <defs
     id="defs1" />
  <g
     id="layer1"
     style="display:none">
    <rect
       style="fill:#fdb000;stroke-width:0.264583"
       id="rect2"
       height="5.0799999"
       x="2.7939999"
       y="1.905"
       width="5.0799999" />
    <g
       id="g31"
       style="display:inline">
      <circle
         style="fill:#fdb000;stroke-width:0.177576"
         id="path31"
         cx="44.881802"
         cy="7.2898002"
         r="0.63499999" />
      <circle
         style="display:inline;fill:#fdb000;stroke-width:0.177576"
         id="path31-0"
         cx="44.881802"
         cy="17.145"
         r="0.63499999" />
    </g>
    <g
       id="g33"
       style="display:inline">
      <path
         id="path28-6-5"
         style="display:inline;fill:#fdb000;stroke-width:0.278175"
         d="m 49.573304,10.922021 c -0.768387,0.319086 -1.470014,0.637828 -1.478462,0.957047 -0.0084,0.316033 0.662519,0.632115 1.405082,0.948263 h 8.067724 c 0.790629,-0.314817 1.53074,-0.629775 1.536341,-0.946712 0.0056,-0.318123 -0.729324,-0.638335 -1.512053,-0.958598 z" />
      <path
         id="path26-0-9"
         style="display:inline;fill:#fdb000;stroke-width:0.278175"
         d="m 47.816822,2.768513 c -0.272553,0.01898 -0.338574,0.615355 -0.366902,1.318783 l -0.17415,6.629053 c 0.02207,0.334526 0.09509,0.58704 0.313159,0.607715 0.320131,0.03035 0.952172,-0.439147 1.60042,-0.93431 l 0.15968,-6.073015 C 48.735705,3.512337 48.135343,2.746333 47.816822,2.768513 Z" />
      <path
         id="path30-6-2"
         style="display:inline;fill:#fdb000;stroke-width:0.278175"
         d="m 47.596164,12.434073 c -0.01125,-1.52e-4 -0.02296,1.53e-4 -0.03359,10e-4 -0.230771,0.01985 -0.313419,0.295916 -0.349332,0.65319 L 46.99,21.588003 c 0.0053,0.578116 0.06204,1.030308 0.296622,1.044897 0.318392,0.0198 0.964604,-0.765413 1.622124,-1.579232 L 49.1108,13.366799 c -0.601067,-0.477305 -1.186633,-0.928319 -1.514636,-0.93276 z" />
      <path
         id="rect1-5-2-7-2-2"
         style="display:inline;fill:#fdb000;stroke-width:0.278175"
         d="m 49.447214,21.590104 c -0.834098,0.635148 -1.64208,1.259954 -1.636593,1.578715 0.0044,0.249233 0.507278,0.310364 1.129647,0.326595 h 8.650118 c 0.640351,-0.01656 1.161382,-0.0788 1.188041,-0.330213 0.03379,-0.318666 -0.723436,-0.940136 -1.516186,-1.575097 h -0.122473 l -10e-4,0.0067 5.17e-4,-0.0067 z" />
      <path
         id="path29-6-8"
         style="display:inline;fill:#fdb000;stroke-width:0.278175"
         d="m 59.568043,12.432523 c -0.327028,0.0054 -0.941904,0.475929 -1.567863,0.963766 l -0.198954,7.557161 h 0.07131 l -0.07131,0.0031 -0.0031,0.114205 c 0.615525,0.806064 1.219058,1.578301 1.538408,1.564762 0.237474,-0.01007 0.317733,-0.454927 0.35295,-1.024744 l 0.219625,-8.367448 c -0.0034,-0.430805 -0.0523,-0.787792 -0.309025,-0.809769 -0.01031,-8.83e-4 -0.02107,-0.0012 -0.03204,-10e-4 z" />
      <path
         id="path27-1-9"
         style="display:inline;fill:#fdb000;stroke-width:0.278175"
         d="m 59.822808,2.790218 c -0.327158,0.01353 -0.949097,0.761479 -1.584399,1.543058 l -0.15813,6.006868 c 0.621659,0.514721 1.233362,1.011597 1.55236,0.993221 0.251819,-0.0145 0.320478,-0.351323 0.346749,-0.763261 l 0.171565,-6.515881 c 0.0038,-0.676267 -0.04085,-1.23174 -0.296106,-1.262455 -0.01039,-0.0012 -0.02097,-0.002 -0.03204,-0.0015 z" />
      <path
         id="path25-8-7"
         style="display:inline;fill:#fdb000;stroke-width:0.278175"
         d="m 49.635316,1.905 c -0.674817,0.01339 -1.234464,0.07081 -1.262972,0.33073 -0.03492,0.318315 0.726264,0.939792 1.520838,1.57458 h 7.850683 C 58.562051,3.174873 59.339655,2.554926 59.313278,2.236246 59.292638,1.987251 58.781437,1.922392 58.143324,1.905 Z" />
    </g>
    <g
       id="g32"
       style="display:inline">
      <path
         id="path28-6"
         style="display:inline;fill:#fdb000;stroke-width:0.278175"
         d="m 31.805685,10.916439 c -0.768387,0.319086 -1.470014,0.637828 -1.478462,0.957047 -0.0084,0.316033 0.662519,0.632115 1.405082,0.948263 h 8.067724 c 0.790629,-0.314817 1.53074,-0.629775 1.536341,-0.946712 0.0056,-0.318123 -0.729324,-0.638335 -1.512053,-0.958598 z" />
      <path
         id="path26-0"
         style="display:inline;fill:#fdb000;stroke-width:0.278175"
         d="m 30.049203,2.7629313 c -0.272553,0.01898 -0.338574,0.615355 -0.366902,1.318783 l -0.17415,6.6290527 c 0.02207,0.334526 0.09509,0.58704 0.313159,0.607715 0.320131,0.03035 0.952172,-0.439147 1.60042,-0.93431 l 0.15968,-6.0730147 c -0.613324,-0.804402 -1.213686,-1.570406 -1.532207,-1.548226 z" />
      <path
         id="path30-6"
         style="display:inline;fill:#fdb000;stroke-width:0.278175"
         d="m 29.828545,12.428491 c -0.01125,-1.52e-4 -0.02296,1.53e-4 -0.03359,0.001 -0.230771,0.01985 -0.313419,0.295916 -0.349332,0.65319 l -0.223242,8.49974 c 0.0053,0.578116 0.06204,1.030308 0.296622,1.044897 0.318392,0.0198 0.964604,-0.765413 1.622124,-1.579232 l 0.202054,-7.686869 c -0.601067,-0.477305 -1.186633,-0.928319 -1.514636,-0.93276 z" />
      <path
         id="rect1-5-2-7-2"
         style="display:inline;fill:#fdb000;stroke-width:0.278175"
         d="m 31.679595,21.584522 c -0.834098,0.635148 -1.64208,1.259954 -1.636593,1.578715 0.0044,0.249233 0.507278,0.310364 1.129647,0.326595 h 8.650118 c 0.640351,-0.01656 1.161382,-0.0788 1.188041,-0.330213 0.03379,-0.318666 -0.723436,-0.940136 -1.516186,-1.575097 h -0.122473 l -10e-4,0.0067 5.17e-4,-0.0067 z" />
      <path
         id="path29-6"
         style="display:inline;fill:#fdb000;stroke-width:0.278175"
         d="m 41.800424,12.426941 c -0.327028,0.0054 -0.941904,0.475929 -1.567863,0.963766 l -0.198954,7.557161 h 0.07131 l -0.07131,0.0031 -0.0031,0.114205 c 0.615525,0.806064 1.219058,1.578301 1.538408,1.564762 0.237474,-0.01007 0.317733,-0.454927 0.35295,-1.024744 l 0.219625,-8.367448 c -0.0034,-0.430805 -0.0523,-0.787792 -0.309025,-0.809769 -0.01031,-8.83e-4 -0.02107,-0.0012 -0.03204,-0.001 z" />
      <path
         id="path27-1"
         style="display:inline;fill:#fdb000;stroke-width:0.278175"
         d="m 42.055189,2.7846363 c -0.327158,0.01353 -0.949097,0.761479 -1.584399,1.543058 l -0.15813,6.0068677 c 0.621659,0.514721 1.233362,1.011597 1.55236,0.993221 0.251819,-0.0145 0.320478,-0.351323 0.346749,-0.763261 l 0.171565,-6.5158807 c 0.0038,-0.676267 -0.04085,-1.23174 -0.296106,-1.262455 -0.01039,-0.0012 -0.02097,-0.002 -0.03204,-0.0015 z" />
      <path
         id="path25-8"
         style="display:inline;fill:#fdb000;stroke-width:0.278175"
         d="m 31.867697,1.8994183 c -0.674817,0.01339 -1.234464,0.07081 -1.262972,0.33073 -0.03492,0.318315 0.726264,0.939792 1.520838,1.57458 h 7.850683 c 0.818186,-0.635437 1.59579,-1.255384 1.569413,-1.574064 -0.02064,-0.248995 -0.531841,-0.313854 -1.169954,-0.331246 z" />
    </g>
    <g
       id="g30">
      <path
         id="path28"
         style="display:inline;fill:#fdb000;stroke-width:0.278175"
         d="m 15.303975,10.921814 c -0.768387,0.319086 -1.470014,0.637828 -1.478462,0.957047 -0.0084,0.316033 0.662519,0.632115 1.405082,0.948263 h 8.067724 c 0.790629,-0.314817 1.53074,-0.629775 1.536341,-0.946712 0.0056,-0.318123 -0.729324,-0.638335 -1.512053,-0.958598 z" />
      <path
         id="path26"
         style="display:inline;fill:#fdb000;stroke-width:0.278175"
         d="M 13.547493,2.7683065 C 13.27494,2.7872855 13.208919,3.3836613 13.180591,4.087089 l -0.17415,6.629053 c 0.02207,0.334526 0.09509,0.58704 0.313159,0.607715 0.320131,0.03035 0.952172,-0.439147 1.60042,-0.93431 L 15.0797,4.3165324 C 14.466376,3.51213 13.866014,2.746126 13.547493,2.7683065 Z" />
      <path
         id="path30"
         style="display:inline;fill:#fdb000;stroke-width:0.278175"
         d="m 13.326835,12.433866 c -0.01125,-1.52e-4 -0.02296,1.53e-4 -0.03359,10e-4 -0.230771,0.01985 -0.313419,0.295916 -0.349332,0.65319 l -0.223242,8.49974 c 0.0053,0.578116 0.06204,1.030308 0.296622,1.044897 0.318392,0.0198 0.964604,-0.765413 1.622124,-1.579232 l 0.202054,-7.686869 c -0.601067,-0.477305 -1.186633,-0.928319 -1.514636,-0.93276 z" />
      <path
         id="rect1-5-2-7"
         style="display:inline;fill:#fdb000;stroke-width:0.278175"
         d="m 15.177885,21.589897 c -0.834098,0.635148 -1.64208,1.259954 -1.636593,1.578715 0.0044,0.249233 0.507278,0.310364 1.129647,0.326595 h 8.650118 c 0.640351,-0.01656 1.161382,-0.0788 1.188041,-0.330213 0.03379,-0.318666 -0.723436,-0.940136 -1.516186,-1.575097 h -0.122473 l -0.001,0.0067 5.17e-4,-0.0067 z" />
      <path
         id="path29"
         style="display:inline;fill:#fdb000;stroke-width:0.278175"
         d="m 25.298714,12.432316 c -0.327028,0.0054 -0.941904,0.475929 -1.567863,0.963766 l -0.198954,7.557161 h 0.07131 l -0.07131,0.0031 -0.0031,0.114205 c 0.615525,0.806064 1.219058,1.578301 1.538408,1.564762 0.237474,-0.01007 0.317733,-0.454927 0.35295,-1.024744 l 0.219625,-8.367448 c -0.0034,-0.430805 -0.0523,-0.787792 -0.309025,-0.809769 -0.01031,-8.83e-4 -0.02107,-0.0012 -0.03204,-10e-4 z" />
      <path
         id="path27"
         style="display:inline;fill:#fdb000;stroke-width:0.278175"
         d="m 25.553479,2.7900106 c -0.327158,0.013529 -0.949097,0.7614798 -1.584399,1.5430582 l -0.15813,6.0068682 c 0.621659,0.514721 1.233362,1.011597 1.55236,0.993221 0.251819,-0.0145 0.320478,-0.351323 0.346749,-0.763261 l 0.171565,-6.5158809 c 0.0038,-0.6762667 -0.04085,-1.2317399 -0.296106,-1.2624552 -0.01039,-0.00125 -0.02097,-0.00201 -0.03204,-0.00155 z" />
      <path
         id="path25"
         style="display:inline;fill:#fdb000;stroke-width:0.278175"
         d="m 15.365987,1.9047933 c -0.674817,0.013387 -1.234464,0.070806 -1.262972,0.3307292 -0.03492,0.318316 0.726264,0.9397925 1.520838,1.5745809 h 7.850683 c 0.818186,-0.635437 1.59579,-1.2553845 1.569413,-1.5740642 -0.02064,-0.2489953 -0.531841,-0.3138543 -1.169954,-0.3312459 z" />
    </g>
  </g>
  <g
     id="g34"
     style="display:inline">
    <path
       id="path28-6-5-2"
       style="display:none;fill:#fdb000;stroke-width:0.278133"
       d="m 65.828525,10.922021 c -0.768155,0.319086 -1.469571,0.637828 -1.478016,0.957047 -0.0084,0.316033 0.662319,0.632115 1.404658,0.948263 h 8.065292 c 0.790391,-0.314817 1.530279,-0.629775 1.535878,-0.946712 0.0056,-0.318123 -0.729104,-0.638335 -1.511597,-0.958598 z" />
    <path
       id="path26-0-9-9"
       style="display:none;fill:#fdb000;stroke-width:0.278133"
       d="m 64.072573,2.768513 c -0.272471,0.01898 -0.338472,0.615355 -0.366792,1.318783 l -0.174097,6.629053 c 0.02206,0.334526 0.09506,0.58704 0.313064,0.607715 0.320035,0.03035 0.951885,-0.439147 1.599938,-0.93431 L 65.604318,4.316739 C 64.991179,3.512337 64.390998,2.746333 64.072573,2.768513 Z" />
    <path
       id="path30-6-2-3"
       style="display:inline;fill:#fdb000;stroke-width:0.278133"
       d="m 63.851981,12.434073 c -0.01125,-1.52e-4 -0.02295,1.53e-4 -0.03358,10e-4 -0.230701,0.01985 -0.313324,0.295916 -0.349226,0.65319 L 63.246,21.588003 c 0.0053,0.578116 0.06202,1.030308 0.296533,1.044897 0.318296,0.0198 0.964313,-0.765413 1.621635,-1.579232 l 0.201993,-7.686869 c -0.600886,-0.477305 -1.186276,-0.928319 -1.51418,-0.93276 z" />
    <path
       id="rect1-5-2-7-2-2-1"
       style="display:none;fill:#fdb000;stroke-width:0.278133"
       d="m 65.702473,21.590104 c -0.833846,0.635148 -1.641585,1.259954 -1.636099,1.578715 0.0044,0.249233 0.507125,0.310364 1.129306,0.326595 h 8.64751 c 0.640158,-0.01656 1.161032,-0.0788 1.187683,-0.330213 0.03378,-0.318666 -0.723218,-0.940136 -1.515729,-1.575097 h -0.122436 l -9.99e-4,0.0067 5.16e-4,-0.0067 z" />
    <path
       id="path29-6-8-9"
       style="display:none;fill:#fdb000;stroke-width:0.278133"
       d="m 75.820251,12.432523 c -0.326929,0.0054 -0.94162,0.475929 -1.56739,0.963766 l -0.198894,7.557161 h 0.07129 l -0.07129,0.0031 -0.0031,0.114205 c 0.615339,0.806064 1.21869,1.578301 1.537944,1.564762 0.237402,-0.01007 0.317637,-0.454927 0.352844,-1.024744 l 0.219558,-8.367448 c -0.0034,-0.430805 -0.05228,-0.787792 -0.308931,-0.809769 -0.01031,-8.83e-4 -0.02106,-0.0012 -0.03203,-10e-4 z" />
    <path
       id="path27-1-9-4"
       style="display:none;fill:#fdb000;stroke-width:0.278133"
       d="m 76.074939,2.790218 c -0.327059,0.01353 -0.94881,0.761479 -1.583921,1.543058 l -0.158082,6.006868 c 0.621471,0.514721 1.23299,1.011597 1.551892,0.993221 0.251743,-0.0145 0.320381,-0.351323 0.346644,-0.763261 l 0.171513,-6.515881 c 0.0038,-0.676267 -0.04084,-1.23174 -0.296016,-1.262455 -0.01039,-0.0012 -0.02096,-0.002 -0.03203,-0.0015 z" />
    <path
       id="path25-8-7-7"
       style="display:none;fill:#fdb000;stroke-width:0.278133"
       d="m 65.890519,1.905 c -0.674614,0.01339 -1.234092,0.07081 -1.262592,0.33073 -0.03491,0.318315 0.726045,0.939792 1.52038,1.57458 h 7.848316 C 74.814562,3.174873 75.591932,2.554926 75.565563,2.236246 75.544929,1.987251 75.033882,1.922392 74.395962,1.905 Z" />
  </g>
</svg>
