<?xml version="1.0" encoding="UTF-8" standalone="no"?>
<!-- Created with Inkscape (http://www.inkscape.org/) -->

<svg
   width="3.5in"
   height="1in"
   viewBox="0 0 88.900001 25.4"
   version="1.1"
   id="svg1"
   xmlns="http://www.w3.org/2000/svg"
   xmlns:svg="http://www.w3.org/2000/svg">
  
     
  <path
     style="fill:#fdb000;stroke-width:0.264583"
     d="m 4.3069041,6.0209055 c 0.5370536,8.126e-4 1.7769421,0.012206 2.4329913,0.01741 0.6560492,0.0052 0.7282554,0.00422 0.7610902,-0.046915 0.032835,-0.051137 0.026297,-0.1524229 0.021782,-0.2536438 -0.00451,-0.1012209 -0.007,-0.2023703 -0.051316,-0.253596 C 7.4271399,5.4329351 7.3410086,5.4316351 7.2197213,5.4276476 7.0984341,5.42366 6.9420016,5.4169854 6.8570371,5.0282866 6.7720726,4.6395879 6.7585863,3.8689115 6.7433073,3.3499784 6.7280283,2.8310454 6.710958,2.5639125 6.5164276,2.4327507 6.3218971,2.3015889 5.9499289,2.3064033 5.594353,2.3063282 5.238777,2.3062531 4.8996357,2.3012883 4.7270865,2.4349835 4.5545374,2.5686786 4.5486012,2.8410174 4.5350458,3.3545063 4.5214903,3.8679951 4.5003168,4.6225876 4.3927209,5.0067853 4.2851251,5.3909829 4.0911191,5.4047701 3.9447029,5.4116375 c -0.1464161,0.00687 -0.2452247,0.00681 -0.2974361,0.064266 -0.052211,0.057451 -0.057819,0.172399 -0.062313,0.2762678 -0.00449,0.1038688 -0.00787,0.1966456 0.078392,0.2427083 0.086264,0.046063 0.2621641,0.045406 0.2672251,0.040194 0.00506,-0.00521 -0.1607203,-0.01498 0.3763332,-0.014168 z"
     id="path1" />
  <ellipse
     style="fill:#fdb000;stroke-width:0.264583"
     id="path2"
     cx="5.6070938"
     cy="6.5843239"
     rx="0.29186195"
     ry="0.29102072" />
</svg>
