<?xml version="1.0" encoding="UTF-8" standalone="no"?>
<!-- Created with Inkscape (http://www.inkscape.org/) -->

<svg
   width="3.5in"
   height="1in"
   viewBox="0 0 88.900001 25.4"
   version="1.1"
   id="svg1"
   sodipodi:docname="alarm.svg"
   inkscape:version="1.3.2 (091e20ef0f, 2023-11-25)"
   xmlns:inkscape="http://www.inkscape.org/namespaces/inkscape"
   xmlns:sodipodi="http://sodipodi.sourceforge.net/DTD/sodipodi-0.dtd"
   xmlns="http://www.w3.org/2000/svg"
   xmlns:svg="http://www.w3.org/2000/svg">
  <sodipodi:namedview
     id="namedview1"
     pagecolor="#505050"
     bordercolor="#ffffff"
     borderopacity="1"
     inkscape:showpageshadow="0"
     inkscape:pageopacity="0"
     inkscape:pagecheckerboard="1"
     inkscape:deskcolor="#505050"
     inkscape:document-units="in"
     inkscape:zoom="25.18647"
     inkscape:cx="23.88187"
     inkscape:cy="25.94647"
     inkscape:window-width="1200"
     inkscape:window-height="1851"
     inkscape:window-x="0"
     inkscape:window-y="0"
     inkscape:window-maximized="1"
     inkscape:current-layer="svg1" />
  <defs
     id="defs1">
    <inkscape:path-effect
       effect="bspline"
       id="path-effect1"
       is_visible="true"
       lpeversion="1.3"
       weight="33.333333"
       steps="2"
       helper_size="0"
       apply_no_weight="true"
       apply_with_weight="true"
       only_selected="false"
       uniform="false" />
  </defs>
  <path
     style="fill:#fdb000;stroke-width:0.264583"
     d="m 4.3069041,6.0209055 c 0.5370536,8.126e-4 1.7769421,0.012206 2.4329913,0.01741 0.6560492,0.0052 0.7282554,0.00422 0.7610902,-0.046915 0.032835,-0.051137 0.026297,-0.1524229 0.021782,-0.2536438 -0.00451,-0.1012209 -0.007,-0.2023703 -0.051316,-0.253596 C 7.4271399,5.4329351 7.3410086,5.4316351 7.2197213,5.4276476 7.0984341,5.42366 6.9420016,5.4169854 6.8570371,5.0282866 6.7720726,4.6395879 6.7585863,3.8689115 6.7433073,3.3499784 6.7280283,2.8310454 6.710958,2.5639125 6.5164276,2.4327507 6.3218971,2.3015889 5.9499289,2.3064033 5.594353,2.3063282 5.238777,2.3062531 4.8996357,2.3012883 4.7270865,2.4349835 4.5545374,2.5686786 4.5486012,2.8410174 4.5350458,3.3545063 4.5214903,3.8679951 4.5003168,4.6225876 4.3927209,5.0067853 4.2851251,5.3909829 4.0911191,5.4047701 3.9447029,5.4116375 c -0.1464161,0.00687 -0.2452247,0.00681 -0.2974361,0.064266 -0.052211,0.057451 -0.057819,0.172399 -0.062313,0.2762678 -0.00449,0.1038688 -0.00787,0.1966456 0.078392,0.2427083 0.086264,0.046063 0.2621641,0.045406 0.2672251,0.040194 0.00506,-0.00521 -0.1607203,-0.01498 0.3763332,-0.014168 z"
     id="path1"
     inkscape:path-effect="#path-effect1"
     inkscape:original-d="m 3.6040693,6.0103251 c 1.2398884,0.011393 2.4797769,0.022786 3.7196653,0.034179 0.07221,-9.838e-4 0.1444162,-0.00197 0.2166243,-0.00295 -0.00654,-0.1012902 -0.013077,-0.2025764 -0.019615,-0.3038647 -0.00249,-0.1011535 -0.00498,-0.2023029 -0.00747,-0.3034543 -0.086134,-0.0013 -0.1722653,-0.0026 -0.2583979,-0.0039 C 7.0984341,5.42366 6.9420016,5.4169854 6.7855597,5.4103103 6.7720726,4.6395879 6.7585863,3.8689115 6.7450992,3.0981891 6.7280282,2.8310454 6.710958,2.5639125 6.6938874,2.2967741 6.3218971,2.3015889 5.9499289,2.3064033 5.5779385,2.3112181 5.238777,2.3062531 4.8996357,2.3012883 4.5604739,2.2963233 4.5545374,2.5686786 4.5486012,2.8410174 4.5426647,3.1133726 4.5214903,3.8679951 4.5003168,4.6225876 4.4791428,5.377195 4.2851251,5.3909829 4.0911191,5.4047701 3.8971014,5.418558 3.7982868,5.418505 3.6994782,5.418452 3.6006636,5.418399 c -0.00561,0.1149553 -0.011216,0.2299032 -0.016824,0.3448588 -0.00338,0.092782 -0.00676,0.1855587 -0.010137,0.2783409 0.1759073,-6.567e-4 0.3518073,-0.00131 0.5277109,-0.00197 C 3.935632,6.0298607 3.7698506,6.0200929 3.6040693,6.0103251 Z"
     sodipodi:nodetypes="ccccccccccccccccccc" />
  <ellipse
     style="fill:#fdb000;stroke-width:0.264583"
     id="path2"
     cx="5.6070938"
     cy="6.5843239"
     rx="0.29186195"
     ry="0.29102072" />
</svg>
